<svg width="182" height="40" viewBox="0 0 182 40" fill="none" xmlns="http://www.w3.org/2000/svg">
<g clip-path="url(#clip0_9_68)">
<path d="M66.8254 39.9813C64.1983 39.9813 62.5417 39.6202 61.8553 38.898C61.1692 38.1758 61.3628 37.0024 62.4374 35.3771L70.8102 22.8117C70.9894 22.559 71.1384 22.4055 71.258 22.3514C71.407 22.2789 71.6911 22.243 72.1086 22.243H77.4397C77.8582 22.243 78.0974 22.2789 78.1575 22.3514C78.217 22.4055 78.1575 22.559 77.9778 22.8126L69.8156 35.0462C69.4264 35.6065 69.3068 35.9593 69.4567 36.1042C69.6063 36.2493 70.1288 36.3211 71.0266 36.3211H72.7307C73.1792 36.3211 73.5527 36.3117 73.8515 36.2935C74.151 36.2578 74.3893 36.1943 74.5692 36.1034C74.7785 36.0127 74.9583 35.8867 75.1072 35.7234C75.2862 35.5424 75.4661 35.3165 75.6453 35.0449L83.8076 22.8111C83.9872 22.5575 84.1363 22.4042 84.256 22.3499C84.4057 22.2775 84.6896 22.2415 85.1081 22.2415H90.421C90.8392 22.2415 91.0778 22.2775 91.1374 22.3499C91.1974 22.4042 91.1372 22.5575 90.9582 22.8104L82.5853 35.3756C81.8689 36.4232 81.2422 37.2538 80.7047 37.8676C80.1675 38.4814 79.5405 38.9507 78.8242 39.2761C78.1078 39.5829 77.2277 39.7815 76.1825 39.8714C75.1382 39.9439 73.75 39.9798 72.0185 39.9798H66.8247L66.8254 39.9813Z" fill="#E1AA33"/>
<path d="M99.9847 30.4084C100.435 30.4084 100.81 30.3993 101.11 30.381C101.41 30.345 101.65 30.2809 101.831 30.1901C102.041 30.0994 102.221 29.9721 102.371 29.8088C102.552 29.6271 102.731 29.4005 102.912 29.1281L104.263 27.1127C104.653 26.5497 104.773 26.1957 104.623 26.0505C104.473 25.9055 103.948 25.8331 103.048 25.8331H99.8055L96.7435 30.4084H99.9847ZM90.7394 39.4106C90.5899 39.6646 90.4393 39.8273 90.2896 39.8997C90.1698 39.954 89.9 39.9814 89.4802 39.9814H84.145C83.7266 39.9814 83.4865 39.954 83.4271 39.8997C83.3978 39.8273 83.4572 39.6646 83.607 39.4113L94.6902 22.883C94.8398 22.6297 94.9741 22.4762 95.0937 22.4218C95.2435 22.3495 95.5274 22.3135 95.9459 22.3135H107.166C109.796 22.3135 111.454 22.6754 112.142 23.3975C112.829 24.1206 112.634 25.2953 111.559 26.922L109.945 29.3891C109.258 30.4555 108.63 31.2961 108.062 31.9105C107.524 32.525 106.897 32.9862 106.18 33.293C105.463 33.6005 104.566 33.7991 103.491 33.8899C102.444 33.9624 101.07 33.9982 99.367 33.9982H94.3808L90.7394 39.4106Z" fill="#E1AA33"/>
<path d="M124.722 36.3916C125.142 36.3916 125.381 36.4283 125.441 36.5005C125.502 36.5549 125.441 36.709 125.261 36.9632L123.598 39.4106C123.418 39.6646 123.253 39.8273 123.103 39.8997C122.983 39.954 122.714 39.9814 122.294 39.9814H107.173C106.754 39.9814 106.515 39.954 106.455 39.8997C106.395 39.8273 106.455 39.6646 106.634 39.4113L117.673 22.883C117.852 22.6297 118.002 22.4762 118.121 22.4218C118.271 22.3495 118.555 22.3135 118.974 22.3135H133.698C134.118 22.3135 134.357 22.3495 134.417 22.4218C134.477 22.4762 134.417 22.6304 134.237 22.8845L132.574 25.3326C132.394 25.5866 132.229 25.7493 132.079 25.8219C131.959 25.876 131.69 25.9036 131.27 25.9036H122.839L120.586 29.2823H128.206C128.617 29.2823 128.853 29.3181 128.911 29.3891C128.999 29.4428 128.955 29.5932 128.78 29.8424L127.149 32.242C126.972 32.4914 126.811 32.6509 126.663 32.7223C126.546 32.7756 126.282 32.8024 125.869 32.8024H118.223L115.822 36.3922L124.722 36.3916Z" fill="#E1AA33"/>
<path d="M145.037 29.8449C145.484 29.8449 145.841 29.8358 146.109 29.8181C146.406 29.7823 146.659 29.7189 146.867 29.6287C147.075 29.5386 147.254 29.4126 147.403 29.2508C147.581 29.0706 147.76 28.8459 147.938 28.5758L148.876 27.1723C149.233 26.614 149.337 26.2635 149.189 26.1191C149.07 25.9755 148.564 25.903 147.671 25.903H142.93L140.297 29.8449H145.037ZM133.878 39.4144C133.699 39.6663 133.55 39.8283 133.431 39.9008C133.313 39.9549 133.045 39.9816 132.628 39.9816H127.261C126.842 39.9816 126.602 39.9543 126.543 39.9C126.483 39.8277 126.543 39.665 126.722 39.4115L137.804 22.8833C137.985 22.6297 138.134 22.4764 138.253 22.4221C138.373 22.3499 138.642 22.3138 139.06 22.3138H151.812C154.446 22.3138 156.106 22.6756 156.793 23.3993C157.481 24.1228 157.286 25.2991 156.209 26.9273L155.088 28.6103C154.848 28.9719 154.624 29.2706 154.415 29.5055C154.234 29.7405 154.011 29.9582 153.741 30.1567C153.472 30.3559 152.776 30.8692 152.388 31.0683C152.029 31.2675 150.066 31.5355 149.189 31.402C149.669 31.6022 150.487 31.8157 151.327 33.0035C151.393 33.1371 151.604 33.8395 151.185 34.4731L147.864 39.4124C147.715 39.6656 147.565 39.8283 147.416 39.9008C147.267 39.9549 146.982 39.9825 146.564 39.9825H141.21C140.793 39.9825 140.554 39.9556 140.496 39.9015C140.436 39.8296 140.496 39.6678 140.674 39.415L143.889 34.6349C144.276 34.0767 144.395 33.7255 144.247 33.5819C144.098 33.4375 143.561 33.3659 142.639 33.3659H137.942L133.878 39.4144Z" fill="#E1AA33"/>
<path d="M164.174 36.3916C164.624 36.3916 165.001 36.3824 165.301 36.3642C165.602 36.3275 165.842 36.2642 166.022 36.1733C166.233 36.0824 166.413 35.9552 166.563 35.7918C166.743 35.6103 166.923 35.3829 167.104 35.1099L168.005 33.7737C168.306 33.319 168.441 33.01 168.41 32.8467C168.38 32.665 168.139 32.5561 167.69 32.5194H163.001L160.431 36.3909L164.174 36.3916ZM168.436 29.3526C168.888 29.3526 169.249 29.3435 169.519 29.325C169.82 29.2885 170.076 29.2252 170.286 29.1337C170.496 29.0429 170.677 28.9154 170.827 28.7515C171.007 28.5698 171.189 28.3424 171.369 28.0694L172 27.1142C172.391 26.5503 172.511 26.1957 172.361 26.0499C172.211 25.9048 171.684 25.8316 170.783 25.8316H167.49L165.099 29.3511H168.436V29.3526ZM174.9 30.809C175.289 31.2067 175.497 31.6683 175.527 32.1929C175.587 32.7173 175.393 33.3148 174.945 33.9841L174.002 35.3681C173.284 36.4175 172.656 37.2497 172.118 37.8648C171.579 38.4802 170.95 38.9503 170.232 39.2762C169.514 39.5837 168.633 39.7831 167.585 39.8731C166.538 39.9455 165.162 39.9814 163.457 39.9814H151.881C151.462 39.9814 151.223 39.954 151.163 39.8997C151.103 39.8273 151.163 39.6646 151.343 39.4113L162.38 22.883C162.56 22.6297 162.709 22.4762 162.83 22.4218C162.979 22.3495 163.263 22.3135 163.682 22.3135H174.809C177.442 22.3135 179.102 22.6754 179.79 23.399C180.478 24.1225 180.283 25.2988 179.206 26.927L178.533 27.9315C178.144 28.5107 177.636 29.0442 177.008 29.5326C176.379 30.0213 175.676 30.4464 174.899 30.8082L174.9 30.809Z" fill="#E1AA33"/>
<path d="M63.9252 23.6342C62.8652 22.519 60.8266 21.9615 56.2519 21.9615H50.1032L35.7654 36.3169C35.718 36.3647 35.6536 36.3914 35.5864 36.3914H31.211C31.0074 36.3914 30.8865 36.1634 30.9992 35.9931L40.2709 21.9615H16.9105C15.2561 21.9615 13.7945 22.5711 12.6953 23.0421C11.5963 23.513 10.6351 24.219 9.81032 25.1608C8.93992 26.1026 7.97866 27.3908 6.92575 29.0245L0.20187 39.412C0.0227712 39.6654 -0.0374036 39.8188 0.0227707 39.873C0.0822326 39.9454 0.321505 39.9815 0.739855 39.9815H44.2257C46.8521 39.9815 48.9728 39.9259 50.5851 39.8147C52.244 39.6753 53.6264 39.3684 54.7323 38.8946C55.8385 38.4209 56.806 37.71 57.6357 36.7624C58.5111 35.8149 63.0277 29.0695 63.0277 29.0695C64.6862 26.5615 64.9851 24.7497 63.9252 23.6342Z" fill="#E1AA33"/>
<path d="M81.3578 0C81.7785 0 82.0186 0.0367043 82.0786 0.109248C82.1388 0.164199 82.0786 0.317539 81.8987 0.57166C81.8987 0.57166 73.1256 13.9332 72.2526 14.8785C71.4249 15.8237 70.4596 16.5332 69.3565 17.0057C68.2523 17.4787 66.7852 18.0903 65.1244 18.0903H49.8545L36.7537 4.96924C36.6727 4.88824 36.563 4.84262 36.4488 4.84262H32.3278C31.9827 4.84262 31.7771 5.23011 31.969 5.51876L40.3373 18.0903H25.6281C21.5572 18.0903 18.9898 17.5306 17.9255 16.4117C16.8615 15.2915 17.1622 13.4727 18.8274 10.955C18.8297 10.9513 23.3615 4.18321 24.24 3.23167C25.0726 2.28079 26.0445 1.56686 27.1546 1.09098C28.265 0.615321 29.6526 0.30755 31.3183 0.167458C32.9378 0.0556016 35.0661 0 37.7027 0H81.3578Z" fill="#E1AA33"/>
</g>
<defs>
<clipPath id="clip0_9_68">
<rect width="181.341" height="39.9828" fill="#E1AA33"/>
</clipPath>
</defs>
</svg>
