<svg width="85" height="40" viewBox="0 0 85 40" fill="none" xmlns="http://www.w3.org/2000/svg">
<path d="M63.9252 23.6342C62.8652 22.519 60.8266 21.9615 56.2519 21.9615H50.1032L35.7654 36.3169C35.718 36.3647 35.6536 36.3914 35.5864 36.3914H31.211C31.0074 36.3914 30.8865 36.1634 30.9992 35.9931L40.2709 21.9615H16.9105C15.2561 21.9615 13.7945 22.5711 12.6953 23.0421C11.5963 23.513 10.6351 24.219 9.81032 25.1608C8.93992 26.1026 7.97866 27.3908 6.92575 29.0245L0.20187 39.412C0.0227712 39.6654 -0.0374036 39.8188 0.0227707 39.873C0.0822326 39.9454 0.321505 39.9815 0.739855 39.9815H44.2257C46.8521 39.9815 48.9728 39.9259 50.5851 39.8147C52.244 39.6753 53.6264 39.3684 54.7323 38.8946C55.8385 38.4209 56.806 37.71 57.6357 36.7624C58.5111 35.8149 63.0277 29.0695 63.0277 29.0695C64.6862 26.5615 64.9851 24.7497 63.9252 23.6342Z" fill="#FFC107"/>
<path d="M81.3578 0C81.7785 0 82.0186 0.0367043 82.0786 0.109248C82.1388 0.164199 82.0786 0.317539 81.8987 0.57166C81.8987 0.57166 73.1256 13.9332 72.2526 14.8785C71.4249 15.8237 70.4596 16.5332 69.3565 17.0057C68.2523 17.4787 66.7852 18.0903 65.1244 18.0903H49.8545L36.7537 4.96924C36.6727 4.88824 36.563 4.84262 36.4488 4.84262H32.3278C31.9827 4.84262 31.7771 5.23011 31.969 5.51876L40.3373 18.0903H25.6281C21.5572 18.0903 18.9898 17.5306 17.9255 16.4117C16.8615 15.2915 17.1622 13.4727 18.8274 10.955C18.8297 10.9513 23.3615 4.18321 24.24 3.23167C25.0726 2.28079 26.0445 1.56686 27.1546 1.09098C28.265 0.615321 29.6526 0.30755 31.3183 0.167458C32.9378 0.0556016 35.0661 0 37.7027 0H81.3578Z" fill="#FFC107"/>
</svg>
