<svg preserveAspectRatio="none" width="100%" height="100%" overflow="visible" style="display: block;" viewBox="0 0 20 20" fill="none" xmlns="http://www.w3.org/2000/svg">
<g id="Icons/Nav">
<g id="Vector">
<path d="M7.50033 14.3753C7.15515 14.3753 6.87533 14.6551 6.87533 15.0003C6.87533 15.3455 7.15515 15.6253 7.50033 15.6253H12.5003C12.8455 15.6253 13.1253 15.3455 13.1253 15.0003C13.1253 14.6551 12.8455 14.3753 12.5003 14.3753H7.50033Z" fill="var(--fill-0, #E2E8F0)"/>
<path fill-rule="evenodd" clip-rule="evenodd" d="M10.0003 1.04199C9.41023 1.04199 8.8741 1.21101 8.29245 1.49386C7.7302 1.76728 7.08068 2.1704 6.26937 2.67393L4.54723 3.74274C3.77956 4.21917 3.16486 4.60066 2.69108 4.9635C2.20045 5.33923 1.82362 5.7219 1.55142 6.21918C1.27979 6.71543 1.15746 7.24344 1.09882 7.86758C1.04198 8.47244 1.04199 9.21209 1.04199 10.1397V11.4835C1.04198 13.0701 1.04197 14.3225 1.16925 15.3017C1.2998 16.3061 1.57413 17.1171 2.19396 17.7582C2.81664 18.4023 3.60904 18.69 4.59 18.8265C5.54073 18.9587 6.75496 18.9587 8.2852 18.9587H11.7154C13.2456 18.9587 14.4599 18.9587 15.4107 18.8265C16.3916 18.69 17.184 18.4023 17.8067 17.7582C18.4265 17.1171 18.7008 16.3061 18.8314 15.3017C18.9587 14.3225 18.9587 13.0701 18.9587 11.4835V10.1397C18.9587 9.21211 18.9587 8.47243 18.9018 7.86758C18.8432 7.24344 18.7209 6.71543 18.4492 6.21918C18.177 5.7219 17.8002 5.33923 17.3096 4.9635C16.8358 4.60066 16.2211 4.21917 15.4534 3.74275L13.7313 2.67392C12.92 2.1704 12.2704 1.76728 11.7082 1.49386C11.1266 1.21101 10.5904 1.04199 10.0003 1.04199ZM6.89993 3.75376C7.7464 3.22842 8.34157 2.85994 8.83911 2.61799C9.32385 2.38226 9.66714 2.29199 10.0003 2.29199C10.3335 2.29199 10.6768 2.38226 11.1615 2.61799C11.6591 2.85994 12.2543 3.22841 13.1007 3.75376L14.7674 4.78814C15.5681 5.28507 16.1302 5.63478 16.5496 5.95591C16.9576 6.26836 17.1923 6.52621 17.3527 6.81937C17.5138 7.11357 17.6078 7.45753 17.6573 7.98452C17.708 8.52415 17.7087 9.20517 17.7087 10.1703V11.4378C17.7087 13.0803 17.7074 14.2513 17.5918 15.1406C17.4783 16.0139 17.2645 16.5206 16.908 16.8894C16.5544 17.2552 16.0729 17.4723 15.2385 17.5884C14.3838 17.7072 13.2566 17.7087 11.667 17.7087H8.33366C6.74405 17.7087 5.61685 17.7072 4.76218 17.5884C3.92771 17.4723 3.44627 17.2552 3.09265 16.8894C2.73617 16.5206 2.52234 16.0139 2.40882 15.1406C2.29323 14.2513 2.29199 13.0803 2.29199 11.4378V10.1703C2.29199 9.20517 2.29263 8.52415 2.34333 7.98452C2.39285 7.45753 2.48686 7.11357 2.6479 6.81937C2.80837 6.52621 3.0431 6.26836 3.45109 5.95591C3.87041 5.63478 4.43257 5.28507 5.23327 4.78814L6.89993 3.75376Z" fill="var(--fill-0, #E2E8F0)"/>
</g>
</g>
</svg>
