<svg preserveAspectRatio="none" width="100%" height="100%" overflow="visible" style="display: block;" viewBox="0 0 19.9963 19.9963" fill="none" xmlns="http://www.w3.org/2000/svg">
<g id="Icon" clip-path="url(#clip0_0_21)">
<path id="Vector" d="M8.33181 9.9834H11.6645" stroke="var(--stroke-0, #E2E8F0)" stroke-width="1.66636" stroke-linecap="round" stroke-linejoin="round"/>
<path id="Vector_2" d="M8.33181 6.65088H11.6645" stroke="var(--stroke-0, #E2E8F0)" stroke-width="1.66636" stroke-linecap="round" stroke-linejoin="round"/>
<path id="Vector_3" d="M11.6645 17.4818V14.9823C11.6645 14.5403 11.489 14.1165 11.1765 13.804C10.864 13.4915 10.4401 13.3159 9.99816 13.3159C9.55622 13.3159 9.13237 13.4915 8.81987 13.804C8.50737 14.1165 8.3318 14.5403 8.3318 14.9823V17.4818" stroke="var(--stroke-0, #E2E8F0)" stroke-width="1.66636" stroke-linecap="round" stroke-linejoin="round"/>
<path id="Vector_4" d="M4.99909 8.31741H3.33273C2.89078 8.31741 2.46694 8.49298 2.15443 8.80548C1.84193 9.11798 1.66637 9.54183 1.66637 9.98377V15.816C1.66637 16.258 1.84193 16.6818 2.15443 16.9943C2.46694 17.3068 2.89078 17.4824 3.33273 17.4824H16.6636C17.1056 17.4824 17.5294 17.3068 17.8419 16.9943C18.1544 16.6818 18.33 16.258 18.33 15.816V7.48423C18.33 7.04229 18.1544 6.61844 17.8419 6.30594C17.5294 5.99343 17.1056 5.81787 16.6636 5.81787H14.9973" stroke="var(--stroke-0, #E2E8F0)" stroke-width="1.66636" stroke-linecap="round" stroke-linejoin="round"/>
<path id="Vector_5" d="M4.99908 17.4821V4.15122C4.99908 3.70928 5.17465 3.28543 5.48715 2.97293C5.79965 2.66043 6.2235 2.48486 6.66544 2.48486H13.3309C13.7728 2.48486 14.1967 2.66043 14.5092 2.97293C14.8217 3.28543 14.9973 3.70928 14.9973 4.15122V17.4821" stroke="var(--stroke-0, #E2E8F0)" stroke-width="1.66636" stroke-linecap="round" stroke-linejoin="round"/>
</g>
<defs>
<clipPath id="clip0_0_21">
<rect width="19.9963" height="19.9963" fill="white"/>
</clipPath>
</defs>
</svg>
