<svg preserveAspectRatio="none" width="100%" height="100%" overflow="visible" style="display: block;" viewBox="0 0 19.9963 19.9963" fill="none" xmlns="http://www.w3.org/2000/svg">
<g id="Icon" clip-path="url(#clip0_0_16)">
<path id="Vector" d="M12.2478 5.23468C12.0951 5.39042 12.0096 5.59982 12.0096 5.8179C12.0096 6.03599 12.0951 6.24539 12.2478 6.40113L13.5808 7.73422C13.7366 7.88688 13.946 7.97239 14.1641 7.97239C14.3822 7.97239 14.5916 7.88688 14.7473 7.73422L17.3352 5.14719C17.6018 4.87891 18.0542 4.96389 18.1542 5.32883C18.4059 6.24439 18.3917 7.21271 18.1132 8.12048C17.8346 9.02825 17.3033 9.83792 16.5814 10.4548C15.8595 11.0716 14.9769 11.4701 14.0368 11.6036C13.0967 11.7371 12.138 11.6001 11.2729 11.2086L4.68247 17.799C4.35101 18.1304 3.9015 18.3165 3.43282 18.3164C2.96415 18.3163 2.5147 18.1301 2.18335 17.7986C1.852 17.4672 1.66589 17.0177 1.66597 16.549C1.66605 16.0803 1.8523 15.6308 2.18376 15.2995L8.77422 8.70904C8.38275 7.84396 8.24574 6.88528 8.37924 5.94517C8.51274 5.00507 8.91122 4.12242 9.52805 3.40053C10.1449 2.67863 10.9546 2.14734 11.8623 1.86882C12.7701 1.5903 13.7384 1.57607 14.654 1.8278C15.0189 1.92778 15.1039 2.37937 14.8364 2.64765L12.2478 5.23468Z" stroke="var(--stroke-0, #E2E8F0)" stroke-width="1.66636" stroke-linecap="round" stroke-linejoin="round"/>
</g>
<defs>
<clipPath id="clip0_0_16">
<rect width="19.9963" height="19.9963" fill="white"/>
</clipPath>
</defs>
</svg>
