<svg preserveAspectRatio="none" width="100%" height="100%" overflow="visible" style="display: block;" viewBox="0 0 19.9963 19.9963" fill="none" xmlns="http://www.w3.org/2000/svg">
<g id="Icon" clip-path="url(#clip0_0_12)">
<path id="Vector" d="M9.99817 6.65094C14.1395 6.65094 17.4968 5.53186 17.4968 4.1514C17.4968 2.77094 14.1395 1.65186 9.99817 1.65186C5.85679 1.65186 2.49954 2.77094 2.49954 4.1514C2.49954 5.53186 5.85679 6.65094 9.99817 6.65094Z" stroke="var(--stroke-0, #E2E8F0)" stroke-width="1.66636" stroke-linecap="round" stroke-linejoin="round"/>
<path id="Vector_2" d="M2.49954 4.15137V15.8159C2.49954 16.4788 3.28957 17.1146 4.69584 17.5833C6.1021 18.0521 8.00941 18.3154 9.99817 18.3154C11.9869 18.3154 13.8942 18.0521 15.3005 17.5833C16.7068 17.1146 17.4968 16.4788 17.4968 15.8159V4.15137" stroke="var(--stroke-0, #E2E8F0)" stroke-width="1.66636" stroke-linecap="round" stroke-linejoin="round"/>
<path id="Vector_3" d="M2.49954 9.9834C2.49954 10.6463 3.28957 11.2821 4.69584 11.7508C6.1021 12.2196 8.00941 12.4829 9.99817 12.4829C11.9869 12.4829 13.8942 12.2196 15.3005 11.7508C16.7068 11.2821 17.4968 10.6463 17.4968 9.9834" stroke="var(--stroke-0, #E2E8F0)" stroke-width="1.66636" stroke-linecap="round" stroke-linejoin="round"/>
</g>
<defs>
<clipPath id="clip0_0_12">
<rect width="19.9963" height="19.9963" fill="white"/>
</clipPath>
</defs>
</svg>
