<svg preserveAspectRatio="none" width="100%" height="100%" overflow="visible" style="display: block;" viewBox="0 0 19.9963 19.9963" fill="none" xmlns="http://www.w3.org/2000/svg">
<g id="Icon" clip-path="url(#clip0_0_33)">
<path id="Vector" d="M13.3309 17.4821V15.8158C13.3309 14.9319 12.9798 14.0842 12.3548 13.4592C11.7298 12.8342 10.8821 12.483 9.99817 12.483H4.99908C4.11519 12.483 3.2675 12.8342 2.64249 13.4592C2.01749 14.0842 1.66636 14.9319 1.66636 15.8158V17.4821" stroke="var(--stroke-0, #E2E8F0)" stroke-width="1.66636" stroke-linecap="round" stroke-linejoin="round"/>
<path id="Vector_2" d="M13.3309 2.59131C14.0456 2.77658 14.6785 3.19392 15.1303 3.77781C15.5821 4.3617 15.8273 5.07909 15.8273 5.81738C15.8273 6.55567 15.5821 7.27307 15.1303 7.85696C14.6785 8.44085 14.0456 8.85819 13.3309 9.04346" stroke="var(--stroke-0, #E2E8F0)" stroke-width="1.66636" stroke-linecap="round" stroke-linejoin="round"/>
<path id="Vector_3" d="M18.33 17.4822V15.8158C18.3294 15.0774 18.0836 14.3601 17.6312 13.7765C17.1788 13.1929 16.5454 12.776 15.8304 12.5914" stroke="var(--stroke-0, #E2E8F0)" stroke-width="1.66636" stroke-linecap="round" stroke-linejoin="round"/>
<path id="Vector_4" d="M7.49862 9.15031C9.33924 9.15031 10.8313 7.6582 10.8313 5.81759C10.8313 3.97697 9.33924 2.48486 7.49862 2.48486C5.65801 2.48486 4.1659 3.97697 4.1659 5.81759C4.1659 7.6582 5.65801 9.15031 7.49862 9.15031Z" stroke="var(--stroke-0, #E2E8F0)" stroke-width="1.66636" stroke-linecap="round" stroke-linejoin="round"/>
</g>
<defs>
<clipPath id="clip0_0_33">
<rect width="19.9963" height="19.9963" fill="white"/>
</clipPath>
</defs>
</svg>
