<svg preserveAspectRatio="none" width="100%" height="100%" overflow="visible" style="display: block;" viewBox="0 0 15.9931 15.9931" fill="none" xmlns="http://www.w3.org/2000/svg">
<g id="Icon" clip-path="url(#clip0_0_37)">
<path id="Vector" d="M6.66379 13.3276C6.66373 13.4514 6.69818 13.5728 6.76327 13.6782C6.82836 13.7835 6.92152 13.8686 7.0323 13.924L8.36505 14.5904C8.46667 14.6411 8.57959 14.6651 8.69307 14.66C8.80656 14.6548 8.91685 14.6207 9.01346 14.561C9.11007 14.5012 9.18981 14.4178 9.24509 14.3185C9.30037 14.2193 9.32936 14.1076 9.3293 13.9939V9.3293C9.32945 8.99903 9.45223 8.68058 9.67382 8.43569L14.4871 3.11199C14.5733 3.0164 14.6301 2.89787 14.6504 2.77072C14.6707 2.64358 14.6538 2.51327 14.6016 2.39555C14.5495 2.27783 14.4643 2.17774 14.3565 2.10739C14.2486 2.03704 14.1227 1.99944 13.994 1.99914H1.99914C1.87027 1.99918 1.74417 2.0366 1.63613 2.10685C1.52809 2.1771 1.44273 2.27717 1.39041 2.39494C1.33808 2.51271 1.32102 2.64313 1.34131 2.7704C1.36159 2.89766 1.41834 3.01632 1.50469 3.11199L6.31927 8.43569C6.54087 8.68058 6.66364 8.99903 6.66379 9.3293V13.3276Z" stroke="var(--stroke-0, #62748E)" stroke-width="1.33276" stroke-linecap="round" stroke-linejoin="round"/>
</g>
<defs>
<clipPath id="clip0_0_37">
<rect width="15.9931" height="15.9931" fill="white"/>
</clipPath>
</defs>
</svg>
