<svg preserveAspectRatio="none" width="100%" height="100%" overflow="visible" style="display: block;" viewBox="0 0 19.9963 19.9963" fill="none" xmlns="http://www.w3.org/2000/svg">
<g id="Icon" clip-path="url(#clip0_0_75)">
<path id="Vector" d="M3.33272 11.6645C3.17505 11.6651 3.02047 11.6209 2.88693 11.537C2.75339 11.4532 2.64637 11.3332 2.57831 11.191C2.51026 11.0488 2.48395 10.8902 2.50245 10.7336C2.52095 10.577 2.5835 10.4289 2.68284 10.3065L10.9313 1.80801C10.9932 1.73659 11.0775 1.68833 11.1704 1.67115C11.2633 1.65396 11.3593 1.66888 11.4427 1.71345C11.526 1.75802 11.5917 1.82959 11.629 1.91641C11.6663 2.00324 11.6729 2.10016 11.6479 2.19127L10.0482 7.20702C10.001 7.33327 9.98514 7.46907 10.002 7.60279C10.0188 7.7365 10.0679 7.86413 10.1449 7.97474C10.2219 8.08534 10.3246 8.17561 10.4441 8.2378C10.5637 8.29999 10.6966 8.33225 10.8313 8.33182H16.6636C16.8213 8.33128 16.9759 8.37549 17.1094 8.45931C17.2429 8.54313 17.35 8.66313 17.418 8.80535C17.4861 8.94757 17.5124 9.10618 17.4939 9.26276C17.4754 9.41934 17.4128 9.56746 17.3135 9.6899L9.065 18.1883C9.00313 18.2598 8.91881 18.308 8.82589 18.3252C8.73297 18.3424 8.63697 18.3275 8.55365 18.2829C8.47033 18.2383 8.40463 18.1668 8.36735 18.0799C8.33006 17.9931 8.3234 17.8962 8.34846 17.8051L9.94817 12.7893C9.99534 12.6631 10.0112 12.5273 9.99434 12.3936C9.97749 12.2599 9.92846 12.1322 9.85145 12.0216C9.77444 11.911 9.67174 11.8207 9.55218 11.7586C9.43262 11.6964 9.29975 11.6641 9.16498 11.6645H3.33272Z" stroke="var(--stroke-0, #0163F2)" stroke-width="1.66636" stroke-linecap="round" stroke-linejoin="round"/>
</g>
<defs>
<clipPath id="clip0_0_75">
<rect width="19.9963" height="19.9963" fill="white"/>
</clipPath>
</defs>
</svg>
