<svg preserveAspectRatio="none" width="100%" height="100%" overflow="visible" style="display: block;" viewBox="0 0 15.9931 15.9931" fill="none" xmlns="http://www.w3.org/2000/svg">
<g id="Icon" clip-path="url(#clip0_0_73)">
<path id="Vector" d="M9.79575 4.19804C9.67365 4.32261 9.60526 4.49008 9.60526 4.66451C9.60526 4.83893 9.67365 5.00641 9.79575 5.13097L10.862 6.19718C10.9865 6.31928 11.154 6.38767 11.3284 6.38767C11.5028 6.38767 11.6703 6.31928 11.7949 6.19718L13.8647 4.12807C14.0779 3.9135 14.4397 3.98147 14.5197 4.27334C14.721 5.00561 14.7097 5.78007 14.4869 6.50611C14.2641 7.23214 13.8392 7.87972 13.2618 8.37306C12.6845 8.86641 11.9785 9.18511 11.2266 9.29188C10.4747 9.39866 9.70798 9.28908 9.01609 8.97598L3.74503 14.247C3.47993 14.512 3.12041 14.6609 2.74556 14.6608C2.37071 14.6608 2.01124 14.5118 1.74623 14.2467C1.48122 13.9816 1.33237 13.6221 1.33243 13.2472C1.33249 12.8724 1.48146 12.5129 1.74656 12.2479L7.01762 6.97684C6.70451 6.28495 6.59494 5.51819 6.70171 4.76629C6.80848 4.0144 7.12719 3.30846 7.62053 2.73109C8.11388 2.15371 8.76145 1.72878 9.48749 1.50602C10.2135 1.28326 10.988 1.27188 11.7203 1.47322C12.0121 1.55319 12.0801 1.91436 11.8662 2.12894L9.79575 4.19804Z" stroke="var(--stroke-0, #FE9A00)" stroke-width="1.33276" stroke-linecap="round" stroke-linejoin="round"/>
</g>
<defs>
<clipPath id="clip0_0_73">
<rect width="15.9931" height="15.9931" fill="white"/>
</clipPath>
</defs>
</svg>
